<?xml version="1.0" encoding="UTF-8" standalone="no"?>
<!-- Created with Inkscape (http://www.inkscape.org/) -->

<svg
   version="1.1"
   id="svg2"
   width="625.21332"
   height="825.69336"
   viewBox="0 0 625.21332 825.69336"
   sodipodi:docname="HC_WIKOV.eps"
   xmlns:inkscape="http://www.inkscape.org/namespaces/inkscape"
   xmlns:sodipodi="http://sodipodi.sourceforge.net/DTD/sodipodi-0.dtd"
   xmlns="http://www.w3.org/2000/svg"
   xmlns:svg="http://www.w3.org/2000/svg">
  <defs
     id="defs6">
    <clipPath
       clipPathUnits="userSpaceOnUse"
       id="clipPath18">
      <path
         d="M 0,2 V 6193 H 4689 V 2 Z"
         id="path16" />
    </clipPath>
  </defs>
  <sodipodi:namedview
     id="namedview4"
     pagecolor="#ffffff"
     bordercolor="#000000"
     borderopacity="0.25"
     inkscape:showpageshadow="2"
     inkscape:pageopacity="0.0"
     inkscape:pagecheckerboard="0"
     inkscape:deskcolor="#d1d1d1" />
  <g
     id="g8"
     inkscape:groupmode="layer"
     inkscape:label="ink_ext_XXXXXX"
     transform="matrix(1.3333333,0,0,-1.3333333,0,825.69333)">
    <g
       id="g10"
       transform="scale(0.1)">
      <g
         id="g12">
        <g
           id="g14"
           clip-path="url(#clipPath18)">
          <path
             d="m 4141.88,4417.66 540.04,468.97 -312.07,344.94 57.48,78.02 c 0,0 -773.86,909.18 -2200.07,877.34 -1299.549,-29 -1963.682,-844.49 -1963.682,-844.49 l 73.906,-69.81 -320.2809,-336.72 534.1409,-488.88 8.769,-7.91 C 409.488,4227.03 301.34,3986.5 246.965,3728.05 l -1.672,-7.46 -0.039,-1.75 -20.492,-991.97 c 0,0 69.804,-312.06 221.738,-570.77 151.934,-258.7 184.785,-307.97 184.785,-307.97 L 7.12891,1306.1 319.203,961.172 261.719,883.148 c 0,0 773.881,-909.1675 2200.091,-877.3355 1299.54,28.9961 1963.67,844.4885 1963.67,844.4885 l -73.91,69.82 320.29,336.709 -587.2,537.92 c 0,0 151.93,221.74 176.57,316.18 24.64,94.44 4.1,176.57 4.1,176.57 0,0 61.6,73.92 123.2,176.57 61.59,102.66 65.69,252.85 65.69,252.85 l -14.28,992.25 c -52.56,249.89 -155.39,483.02 -298.28,689.88 l -7.85,11.22 8.07,7.39"
             style="fill:#ffffff;fill-opacity:1;fill-rule:nonzero;stroke:none"
             id="path20" />
          <path
             d="m 4141.88,4417.66 540.04,468.97 -312.07,344.94 57.48,78.02 c 0,0 -773.86,909.18 -2200.07,877.34 -1299.549,-29 -1963.682,-844.49 -1963.682,-844.49 l 73.906,-69.81 -320.2809,-336.72 534.1409,-488.88 8.769,-7.91 C 409.488,4227.03 301.34,3986.5 246.965,3728.05 l -1.672,-7.46 -0.039,-1.75 -20.492,-991.97 c 0,0 69.804,-312.06 221.738,-570.77 151.934,-258.7 184.785,-307.97 184.785,-307.97 L 7.12891,1306.1 319.203,961.172 261.719,883.148 c 0,0 773.881,-909.1675 2200.091,-877.3355 1299.54,28.9961 1963.67,844.4885 1963.67,844.4885 l -73.91,69.82 320.29,336.709 -587.2,537.92 c 0,0 151.93,221.74 176.57,316.18 24.64,94.44 4.1,176.57 4.1,176.57 0,0 61.6,73.92 123.2,176.57 61.59,102.66 65.69,252.85 65.69,252.85 l -14.28,992.25 c -52.56,249.89 -155.39,483.02 -298.28,689.88 l -7.85,11.22 z"
             style="fill:none;stroke:#231f20;stroke-width:10;stroke-linecap:butt;stroke-linejoin:miter;stroke-miterlimit:4;stroke-dasharray:none;stroke-opacity:1"
             id="path22" />
          <path
             d="m 2910.02,4286.96 c 0,0 -171.47,47.27 -315.38,67.28 -143.92,20.01 -232.9,14.48 -232.9,14.48 -391.82,-198.15 -831.02,-748.01 -962.31,-1419.08 -25.4,15.05 -140.64,84.36 -220.57,149.32 -90.29,73.35 -160.06,150.93 -160.06,150.93 0,0 86.71,272.28 250.35,526.2 163.65,253.92 509.39,510.34 509.39,510.34 C 1119.26,4127.31 542.77,3429.25 478.16,2678.79 c 0,0 36.633,-229.55 272.258,-634.97 C 986.043,1638.41 1467.69,1382 1467.69,1382 c 0,0 -322.26,343.04 -440.07,717.25 -80.632,256.13 -91.503,551.23 -91.503,551.23 0,0 78.863,-52.83 208.243,-117.13 129.37,-64.31 218.31,-85.72 218.31,-85.72 l 0.05,0.56 c 21.04,-466.14 183.47,-888.04 437.75,-1207.05 0,0 206.33,-55.16 353.36,-68.91 265.51,-24.83 370.25,-1.61 370.25,-1.61 -0.18,0.2 -0.37,0.41 -0.55,0.6 -320.92,348.63 -521.88,847.69 -521.88,1401.93 0,752.38 370.33,1403.06 908.37,1713.81"
             style="fill:#18468b;fill-opacity:1;fill-rule:nonzero;stroke:none"
             id="path24" />
          <path
             d="m 3929.31,3479.75 c 0,0 -183.01,273.08 -277.86,346.85 -94.86,73.77 -172.01,155.47 -444.11,168.35 -405.52,19.19 -1063.62,-599.32 -1053.93,-1306.9 12.37,-905.54 653.36,-1340.95 959.08,-1317.44 218.42,16.8 428.19,77.35 678.95,377.29 252.36,301.83 242.47,415.64 242.47,415.64 0,0 -267.2,-371.11 -668.48,-287.04 -347.98,72.91 -632.36,421.6 -600.74,811.55 31.61,389.96 252.96,716.69 590.21,874.77 337.26,158.1 574.41,-83.07 574.41,-83.07"
             style="fill:#18468b;fill-opacity:1;fill-rule:nonzero;stroke:none"
             id="path26" />
          <path
             d="m 4043.97,957.73 c 115.33,91.39 220.97,192.03 315.43,300.57 l -403.69,369.51 C 3559.81,1183.1 2995.25,904.98 2368.64,904.98 c -644.96,0 -1224.15,294.63 -1621.378,762.3 L 326.031,1301.41 c 88.559,-107.04 187.782,-206.85 296.297,-298.19 l -60.32,-73.54 C 1010.42,494.27 1651.15,221.781 2362.55,221.781 c 687.02,0 1308.16,254.168 1753.81,663.77 l -72.39,72.179"
             style="fill:#18468b;fill-opacity:1;fill-rule:nonzero;stroke:none"
             id="path28" />
          <path
             d="m 4202.15,2804.79 -9.43,872.26 c -216.1,818.4 -962.47,1421.86 -1850,1421.86 -888.04,0 -1634.767,-604.16 -1850.365,-1423.28 l -15.109,-877.57 c 105.387,953.11 899.054,1693.86 1862.524,1693.86 912.8,0 1673.2,-664.95 1840.23,-1545.44 l 0.12,-0.78 c 0.01,-0.03 0.02,-0.05 0.03,-0.08 z m 0,0 0.07,-6.56 -22.1,147.47 c -62.72,194.61 -245.32,335.41 -460.76,335.41 -267.31,0 -484,-216.69 -484,-483.97 0,-267.31 216.69,-483.99 484,-483.99 267.28,0 483.98,216.68 483.98,483.99 l -1.19,7.65"
             style="fill:#00a650;fill-opacity:1;fill-rule:nonzero;stroke:none"
             id="path30" />
          <path
             d="m 1073.72,1172.76 89.5,-56.54 -77.27,-122.31 105.86,-66.859 77.27,122.309 89.5,-56.528 -201.99,-319.781 -89.5,56.539 86.53,136.98 -105.87,66.871 -86.523,-136.98 -89.504,56.539 201.997,319.76"
             style="fill:#ffffff;fill-opacity:1;fill-rule:nonzero;stroke:none"
             id="path32" />
          <path
             d="M 1462.77,942.379 1639.6,875.82 c 66.05,-24.879 109.15,-73.531 86.25,-134.371 -17.76,-47.168 -53.04,-69.789 -104.99,-62.398 l -0.37,-1 c 28.9,-20.16 20.92,-47.832 23.33,-97.949 l -0.06,-109.993 -103.33,38.903 2.75,71.929 c 2.67,68.469 -4.38,88.489 -41.14,102.309 l -20.77,7.84 -52.7,-139.969 -99.07,37.301 z m 43.7,-184.348 26.1,-9.84 c 31.96,-12.019 72.82,-26.25 87.9,13.821 12.42,32.957 -19.91,52.078 -57.74,66.308 l -26.09,9.828 -30.17,-80.117"
             style="fill:#ffffff;fill-opacity:1;fill-rule:nonzero;stroke:none"
             id="path34" />
          <path
             d="m 2048.37,779.75 c 129.44,-19.5 185.93,-103.07 167.87,-223.098 -17.91,-118.961 -97.77,-183.093 -226.1,-163.8 -128.31,19.328 -185.76,104.14 -167.85,223.097 18.05,120.039 96.65,183.262 226.08,163.801 z m -47.1,-312.93 c 63.59,-9.582 97.63,44.481 106.91,106.09 9.76,64.84 -7.34,123.309 -70.93,132.871 -63.61,9.578 -97.16,-41.25 -106.92,-106.09 -9.27,-61.621 7.36,-123.32 70.94,-132.871"
             style="fill:#ffffff;fill-opacity:1;fill-rule:nonzero;stroke:none"
             id="path36" />
          <path
             d="m 2348.09,741.539 134.54,9.613 152.3,-246.582 1.14,0.071 -20.04,256.07 96.5,6.918 27,-377.277 -131.12,-9.372 -156.96,247.899 -1.15,-0.09 21.86,-257.57 -97.07,-6.949 -27,377.269"
             style="fill:#ffffff;fill-opacity:1;fill-rule:nonzero;stroke:none"
             id="path38" />
          <path
             d="m 3001.55,849.41 c 125.03,38.762 212.26,-11.898 248.21,-127.84 35.63,-114.898 -8.38,-207.398 -132.32,-245.851 -123.94,-38.418 -212.57,12.953 -248.2,127.84 -35.95,115.933 7.29,207.07 132.31,245.851 z m 93.74,-302.269 c 61.43,19.07 68.56,82.539 50.1,142.058 -19.42,62.633 -60.25,107.832 -121.69,88.781 -61.42,-19.039 -69.51,-79.41 -50.09,-142.058 18.46,-59.5 60.26,-107.82 121.68,-88.781"
             style="fill:#ffffff;fill-opacity:1;fill-rule:nonzero;stroke:none"
             id="path40" />
          <path
             d="m 3257.28,930.012 97.31,56.828 225.91,-211.949 0.98,0.57 -73.06,301.209 93.88,54.8 73.74,-394.919 -113.04,-66 -305.72,259.461"
             style="fill:#ffffff;fill-opacity:1;fill-rule:nonzero;stroke:none"
             id="path42" />
          <path
             d="M 641.449,5221.32 C 526.129,5129.92 420.484,5029.29 326.02,4920.74 l 403.691,-369.51 c 395.909,444.72 960.469,722.84 1587.079,722.84 644.96,0 1224.15,-294.64 1621.37,-762.3 l 421.23,365.87 c -88.55,107.04 -187.78,206.84 -296.29,298.18 l 60.32,73.55 c -448.41,435.41 -1089.14,707.9 -1800.54,707.9 -687.02,0 -1308.16,-254.17 -1753.814,-663.77 l 72.383,-72.18"
             style="fill:#18468b;fill-opacity:1;fill-rule:nonzero;stroke:none"
             id="path44" />
          <path
             d="m 1221.28,5098.87 c -20.63,28.77 -52.74,76.62 -73.72,105.88 -9.43,13.16 -18.53,25.83 -28.46,38.65 -13.99,-9.29 -27.66,-19.09 -41.3,-28.88 -19.02,-13.63 -33.78,-24.96 -56,-42.38 l 101.76,-141.89 -0.21,-3.83 -102.32,-75.59 -4.19,0.69 c -94.344,134.64 -127.078,181.31 -138.613,197.4 -34.27,47.79 -66.016,90.01 -105.934,142.58 l -0.152,4.34 c 13.519,8.94 26.683,18.39 40.324,28.18 21.457,15.38 40.262,30.34 62.961,48.11 l 4.051,-1.53 87.769,-122.39 98.004,70.29 -89.02,120.01 0.688,4.18 103.302,76.29 3.84,-0.21 c 43.78,-63.11 87.91,-126.7 132.67,-189.12 43.01,-59.96 68.32,-94.22 111.75,-151.7 l -0.34,-4.67 c -45.84,-32.86 -61.44,-44.05 -102.8,-75.95 l -4.06,1.54"
             style="fill:#ffffff;fill-opacity:1;fill-rule:nonzero;stroke:none"
             id="path46" />
          <path
             d="m 1653.28,5303.79 c -26.83,-20.53 -49.61,-38.25 -91.08,-54.11 -67.82,-25.93 -114.81,-23.98 -151.41,-12.28 -71.08,22.93 -109.68,85.24 -128.97,135.69 -52.94,138.42 1.58,242.79 120.4,288.2 49.32,18.87 82.4,18.02 108.81,17.85 l 3.74,-3.06 c 11.64,-40.53 15.79,-53.07 30.32,-94.4 l -3.08,-3.75 c -14.84,5.24 -42.44,15.24 -82.22,0.03 -44.28,-16.93 -86.46,-64.54 -53.24,-151.39 34.71,-90.81 100.32,-92.69 145.72,-75.34 39.78,15.23 56.34,40.82 64.88,53.73 l 5.35,-0.53 32.29,-96.2 -1.51,-4.44"
             style="fill:#ffffff;fill-opacity:1;fill-rule:nonzero;stroke:none"
             id="path48" />
          <path
             d="m 2159.77,5374.38 c -4.16,15.34 -21.8,90.43 -26.08,107.56 -8.47,33.08 -18.16,66.03 -26.64,99.1 -5.06,19.47 -9.57,39.6 -14.69,59.68 -4.82,-40.07 -9.7,-79.55 -13.98,-118.97 -6.43,-51.03 -11.65,-101.96 -17.48,-152.95 l -4.52,-3.93 c -18,-0.74 -35.95,-2.07 -54.49,-3.45 -26.33,-1.96 -49.62,-4.3 -87.78,-8.96 l -3.87,3.32 c -55.22,192.03 -67.96,233.8 -123.1,408.38 l 2.09,4.38 c 20.93,1.56 41.83,3.71 62.14,5.82 20.85,2.77 41.7,5.52 62.56,8.27 l 4.96,-2.04 76.11,-318.61 c 13.91,127.98 17.07,158.31 31.93,321.86 l 3.34,3.87 128.52,11.38 3.79,-2.71 c 33.59,-143.72 42.43,-181.56 77.09,-315.55 l 30.12,322.32 4,2.72 107.57,9.81 3.77,-2.12 -71.69,-426.51 -3.37,-3.26 c -19.78,-0.88 -39.52,-2.35 -59.28,-3.83 -29.31,-2.18 -52.61,-4.53 -87.18,-8.91 l -3.84,3.33"
             style="fill:#ffffff;fill-opacity:1;fill-rule:nonzero;stroke:none"
             id="path50" />
          <path
             d="m 2565.55,5363.75 c -56.76,5.09 -71.14,6.21 -130.53,8.51 l -2.17,3.17 c 4.26,53.83 9.06,107.02 13.87,160.22 3.3,34.04 6.58,68.08 9.28,102.19 4.17,52.62 6.04,91.6 8.69,155.79 l 3.24,2.76 c 58.56,-5.22 71.13,-6.23 129.93,-8.46 l 2.15,-3.19 c -6.51,-59.67 -10.55,-95.45 -15.99,-164.24 -6.66,-84.34 -11.61,-170.02 -15.85,-253.95 l -2.62,-2.8"
             style="fill:#ffffff;fill-opacity:1;fill-rule:nonzero;stroke:none"
             id="path52" />
          <path
             d="m 2785.14,5551.5 c -5.59,-29.48 -10.71,-59.68 -16.9,-89.04 -12.4,-64.82 -13.38,-69.53 -20.97,-123.12 l -4.15,-2.18 c -50.37,11.21 -66.21,14.54 -120.73,23.54 l -3.38,4.39 c 15.36,64.22 24.92,103.89 38.27,167.31 28.5,135.64 35.2,182.05 43.69,242.81 l 4.26,2.79 c 50.37,-11.21 65.63,-14.43 123.68,-24.18 l 2.91,-3.67 -42.27,-180.57 99.96,113.87 38.95,45.15 4.59,1.49 129.55,-25.41 2.65,-4.84 c -89.13,-76.91 -107.08,-95.21 -157.72,-146.48 l 46.83,-156.38 c 21.71,-65.89 23.86,-73.08 36.52,-103.34 l -2.87,-4.91 -136.17,23.11 -4.78,3.46 c -10.15,45.05 -11.73,52.13 -25.08,105.21 l -36.84,130.99"
             style="fill:#ffffff;fill-opacity:1;fill-rule:nonzero;stroke:none"
             id="path54" />
          <path
             d="m 3360.44,5209.09 c -68.76,-49.97 -145.1,-29.97 -192.45,-9.41 -117.23,50.86 -150.53,149.01 -95.85,275.06 19.58,45.14 45.13,88.99 84.97,117.49 40.85,29.37 101.29,49.59 188.27,11.87 35.24,-15.28 86.62,-46.08 108.76,-97.54 17.32,-41.52 22.68,-95.51 -11.42,-180.12 -12.57,-30.53 -40.16,-86.58 -82.28,-117.35 z m -48.92,310.93 c -51.19,22.21 -87,-25.69 -117.1,-95.04 -15.27,-35.24 -46.59,-116.49 11.75,-141.79 57.81,-25.08 95.48,48.19 114.03,92.47 26.89,63.52 38.67,123.83 -8.68,144.36"
             style="fill:#ffffff;fill-opacity:1;fill-rule:nonzero;stroke:none"
             id="path56" />
          <path
             d="m 3718.41,5385.23 c -25.76,-50.66 -51.87,-101.82 -76.68,-153.22 -21.58,-46.31 -43.18,-92.61 -63.94,-138.8 23.64,19.62 46.81,39.6 70.8,59.71 96.38,80.85 107.23,89.9 171.5,147.08 l 5.05,0.63 90.13,-67.86 0.88,-3.75 c -216.59,-152.27 -221.32,-155.43 -354.18,-255.79 l -6,0.11 c -45.93,35.73 -61.09,47.54 -108.11,81.86 l -1,4.59 c 13.79,33.36 28.07,66.34 41.75,100.55 14.96,37.78 29.71,77.23 44.67,115.02 15.75,41.73 32.09,82.23 48.3,123.59 8.43,21.57 16.85,43.17 25.28,64.73 l 3.63,1.74 c 18.85,-13.9 37.68,-27.81 56.02,-41.33 16.85,-11.59 33.21,-22.8 50.05,-34.39 l 1.85,-4.47"
             style="fill:#ffffff;fill-opacity:1;fill-rule:nonzero;stroke:none"
             id="path58" />
          <path
             d="m 3487.47,2630.98 c -20.44,0.4 -28,0 -46.76,-1.2 l -1.4,2.8 c 0.84,53.99 1.68,104.39 1.68,156.4 0,21.6 0,42.8 -0.28,64.4 l -25.76,-4 -1.68,2.4 1.96,40.4 1.96,2.8 69.72,13.19 1.68,-2.39 c -0.56,-54 -1.4,-108.01 -1.4,-162 0,-60.4 0.84,-79.6 1.96,-110 l -1.68,-2.8"
             style="fill:#ffffff;fill-opacity:1;fill-rule:nonzero;stroke:none"
             id="path60" />
          <path
             d="m 3572.3,2684.98 c 5.89,-4 15.69,-12 31.65,-12 7.28,0 14.84,1.6 21.27,6.4 18.76,14 22.12,40.8 24.37,61.6 -6.72,-7.2 -17.92,-18.8 -38.93,-18.8 -28.55,0 -57.95,28.4 -57.95,92.8 0,52.39 24.08,91.99 68.88,91.99 7.28,0 14.84,-1.19 21.84,-3.59 36.96,-13.2 52.92,-60.8 52.92,-129.2 0,-99.2 -33.04,-148.8 -90.44,-148.8 -14.28,0 -24.64,3.19 -37.24,7.2 l -1.4,2.8 1.96,47.6 z m 75.33,140.8 c -3.08,23.6 -14.84,36.8 -26.6,36.8 -5.6,0 -16.52,-3.2 -21.56,-22 -1.68,-6.4 -2.52,-13.21 -2.52,-21.6 0,-28.8 12.32,-45.6 26.32,-45.6 17.64,0 24.64,20.8 25.48,26.8 0.28,3.6 -0.56,20.4 -1.12,25.6"
             style="fill:#ffffff;fill-opacity:1;fill-rule:nonzero;stroke:none"
             id="path62" />
          <path
             d="m 3722.11,2898.57 1.68,3.21 h 118.44 l 1.39,-3.21 c -2.52,-6.79 -15.95,-41.6 -19.03,-49.59 -8.68,-22.81 -12.61,-33.2 -18.49,-49.6 11.77,-3.6 27.44,-9.6 38.36,-36.8 5.04,-12 6.72,-25.61 6.72,-39.6 0,-51.2 -24.07,-97.6 -80.63,-97.6 -27.44,0 -41.72,9.6 -48.44,14 l -1.41,3.2 2.25,48 2.24,1.6 c 10.91,-10 20.72,-19.6 39.48,-19.6 12.31,0 20.99,4.39 27.71,13.99 6.16,9.21 8.41,22.41 8.41,30 0,18.81 -7,45.61 -35.84,45.61 -6.44,0 -10.09,-1.6 -15.13,-4.01 l -2.79,4.41 c 21,57.2 23.52,63.59 31.92,88.8 l -57.12,-1.6 -1.4,2.4 1.68,46.39"
             style="fill:#ffffff;fill-opacity:1;fill-rule:nonzero;stroke:none"
             id="path64" />
          <path
             d="m 4021.98,2898.98 c -21.56,-85.6 -43.95,-178.4 -54.04,-231.61 -2.24,-11.2 -4.2,-22.39 -6.15,-33.59 l -1.97,-2.8 c -22.11,0.4 -30.51,0 -51.79,-1.2 l -1.68,3.2 c 6.43,23.59 51.24,185.19 59.64,218 l -79.81,-1.6 -1.68,2.4 3.09,47.2 1.68,2.8 c 57.96,-0.4 76.72,-0.4 131.03,0.8 l 1.68,-3.6"
             style="fill:#ffffff;fill-opacity:1;fill-rule:nonzero;stroke:none"
             id="path66" />
        </g>
      </g>
    </g>
  </g>
</svg>
